<?xml version="1.0" standalone="no"?>
<!DOCTYPE svg PUBLIC "-//W3C//DTD SVG 20010904//EN"
 "http://www.w3.org/TR/2001/REC-SVG-20010904/DTD/svg10.dtd">
<svg version="1.0" xmlns="http://www.w3.org/2000/svg"
 width="112.000000pt" height="32.000000pt" viewBox="0 0 1122.000000 319.000000"
 preserveAspectRatio="xMidYMid meet">
<metadata>
Created by potrace 1.16, written by Peter Selinger 2001-2019
</metadata>
<g transform="translate(0.000000,319.000000) scale(0.100000,-0.100000)"
fill="#000000" stroke="none">
<path d="M751 2356 l-304 -304 49 -55 49 -55 155 151 c85 84 201 197 258 252
l102 100 55 -56 56 -55 -257 -249 -256 -249 427 -420 427 -421 -4 -92 -3 -92
-343 336 -343 336 -53 -52 -52 -52 398 -396 398 -397 0 -88 0 -88 80 0 80 0 0
321 0 322 -396 390 -395 390 198 199 198 198 47 -47 48 -48 -160 -160 -160
-160 52 -53 53 -52 367 367 366 366 256 -248 256 -248 0 -111 0 -111 -255 255
-255 255 -317 -317 -318 -318 52 -52 51 -51 262 254 c143 140 265 254 270 254
5 0 122 -109 259 -243 l251 -244 0 -554 0 -554 75 0 75 0 0 798 0 797 -329
329 -329 329 -205 -209 -206 -209 -208 208 c-114 114 -210 207 -213 207 -3 0
-142 -137 -309 -304z"/>
<path d="M4560 1495 l0 -585 50 0 50 0 0 149 0 149 49 41 49 41 130 -187 129
-188 56 -3 c32 -2 57 0 57 3 0 3 -68 106 -151 228 l-151 222 153 148 152 147
-68 0 -68 0 -162 -155 c-90 -85 -165 -155 -169 -155 -3 0 -6 164 -6 365 l0
365 -50 0 -50 0 0 -585z"/>
<path d="M6120 1460 l0 -550 60 0 60 0 0 260 0 260 290 0 290 0 0 -260 0 -260
60 0 60 0 0 550 0 550 -60 0 -60 0 0 -240 0 -240 -290 0 -290 0 0 240 0 240
-60 0 -60 0 0 -550z"/>
<path d="M3937 1676 c-148 -43 -249 -177 -263 -349 -24 -284 181 -485 446
-439 39 7 94 24 121 38 48 24 139 106 139 125 0 4 -16 19 -37 33 l-36 25 -38
-39 c-55 -56 -109 -81 -194 -87 -52 -4 -85 -1 -122 11 -83 28 -156 123 -170
221 l-6 45 308 0 308 0 -5 83 c-8 140 -85 259 -203 313 -68 31 -178 40 -248
20z m231 -116 c60 -34 96 -91 116 -182 l6 -28 -254 0 -255 0 14 46 c26 86 87
156 160 183 50 18 165 8 213 -19z"/>
<path d="M5479 1677 c-158 -45 -256 -180 -267 -369 -16 -308 246 -505 531
-398 54 20 177 118 177 141 0 4 -17 20 -37 33 l-37 25 -51 -48 c-77 -73 -191
-100 -300 -70 -82 22 -175 151 -175 241 l0 28 306 0 307 0 -5 78 c-8 140 -84
259 -203 317 -64 32 -176 42 -246 22z m184 -98 c72 -20 135 -95 156 -188 l9
-41 -254 0 -254 0 6 28 c21 86 93 172 165 198 43 16 123 17 172 3z"/>
<path d="M7387 1675 c-186 -51 -300 -262 -257 -477 31 -159 127 -267 270 -304
212 -54 405 73 451 296 14 67 6 189 -15 250 -66 185 -261 287 -449 235z m203
-106 c58 -26 96 -62 128 -124 25 -45 27 -60 27 -160 0 -100 -2 -115 -27 -160
-49 -94 -129 -144 -228 -145 -109 0 -198 65 -240 177 -31 82 -25 215 12 288
49 93 129 145 228 145 34 0 72 -8 100 -21z"/>
<path d="M8269 1677 c-53 -20 -95 -52 -121 -95 l-23 -37 -3 58 -3 57 -54 0
-55 0 0 -375 0 -375 54 0 54 0 4 248 c4 226 6 252 27 304 37 95 108 139 199
124 45 -7 81 -33 107 -77 18 -31 20 -55 23 -316 l3 -283 54 0 54 0 3 258 3
258 30 60 c65 127 207 142 289 31 20 -27 21 -42 24 -318 l3 -289 55 0 55 0 -3
303 c-3 272 -5 306 -22 337 -97 183 -325 185 -434 2 l-19 -33 -13 32 c-20 47
-57 87 -103 111 -51 26 -140 33 -188 15z"/>
<path d="M9467 1676 c-148 -43 -249 -177 -263 -349 -24 -284 181 -485 446
-439 39 7 94 24 121 38 48 24 139 106 139 125 0 4 -16 19 -37 33 l-36 25 -38
-39 c-55 -56 -109 -81 -194 -87 -52 -4 -85 -1 -122 11 -83 28 -156 123 -170
221 l-6 45 308 0 308 0 -5 83 c-8 140 -85 259 -203 313 -68 31 -178 40 -248
20z m231 -116 c60 -34 96 -91 116 -182 l6 -28 -254 0 -255 0 14 46 c26 86 87
156 160 183 50 18 165 8 213 -19z"/>
<path d="M10240 1674 c-97 -26 -156 -90 -167 -182 -16 -138 72 -217 270 -242
141 -17 188 -42 207 -108 29 -105 -59 -170 -216 -160 -83 6 -155 41 -183 89
-9 16 -20 29 -24 29 -18 0 -87 -41 -87 -52 0 -7 26 -37 58 -69 76 -73 134 -94
257 -93 143 1 252 58 291 150 22 51 17 132 -9 179 -42 75 -111 106 -298 133
-123 18 -178 64 -165 140 10 67 68 102 170 102 91 0 168 -40 204 -105 10 -20
11 -20 57 3 50 24 50 28 2 94 -66 89 -227 129 -367 92z"/>
<path d="M3000 1610 l0 -50 215 -2 215 -3 -215 -275 c-211 -270 -215 -276
-215 -322 l0 -48 280 0 280 0 0 50 0 50 -216 2 -215 3 215 276 c210 269 216
278 216 323 l0 46 -280 0 -280 0 0 -50z"/>
<path d="M1640 1405 l0 -245 250 0 250 0 0 245 0 245 -250 0 -250 0 0 -245z
m340 0 l0 -95 -95 0 -95 0 0 95 0 95 95 0 95 0 0 -95z"/>
<path d="M600 710 l0 -170 170 0 170 0 0 170 0 170 -170 0 -170 0 0 -170z"/>
</g>
</svg>
