<svg xmlns="http://www.w3.org/2000/svg" data-testid="picto-app-promotion-bg" fill="none" viewBox="0 0 290 114"><path fill="url(#a)" fill-rule="evenodd" d="M289.889 42.236c0-.665-.443-1.108-.998-1.108h-22.282c-.554 0-1.108.554-1.108 1.22v17.404l-.333-.111h-17.737a.884.884 0 0 0-.887.332v-9.422c0-.666-.443-1.11-.887-1.11h-2.771v-7.648c0-.665-.443-1.33-.887-1.33h-10.42c-.444 0-.887.665-.887 1.33v15.852h-7.427V21.173c0-.665-.444-1.33-.998-1.33h-1.663l-5.875-12.526h-1.552V1.44c0-.665-.444-1.108-.887-1.108L209.407 0h-1.441l-2.882.222c-.443.11-.887.554-.887 1.108v5.987h-1.441l-5.875 12.637h-1.774c-.554 0-.998.665-.998 1.33v35.474h-6.651c-.554 0-.998.665-.998 1.33v13.747h-5.764V28.934c0-.666-.555-1.11-1.109-1.11h-12.305a1.11 1.11 0 0 0-1.108 1.11v29.265h-5.211c-.554 0-1.108.666-1.108 1.33v12.195h-57.646V29.155H91.235l-6.097 7.095v35.474h-7.206V53.987c0-.665-.444-1.109-.998-1.109h-2.882c-.554 0-.998.444-.998 1.109v17.737h-5.21V59.53c0-.665-.332-1.33-.887-1.33h-5.32v-4.767c0-.665-.444-1.33-1.11-1.33h-2.993c-.443 0-.997.665-.997 1.33v18.291h-6.984v-7.87c0-.666-.333-1.11-.887-1.11H34.144V42.237c0-.554-.555-1.108-.998-1.108v-.111H22.615V37.36c0-.666-.444-1.109-.887-1.109h-5.432a1.11 1.11 0 0 0-1.109 1.109v3.658H.887c-.444 0-.887.554-.887 1.22l.998 71.169H290v-71.17h-.111Z" clip-rule="evenodd"/><path fill="#D3D9E2" fill-rule="evenodd" d="M259.625 82.699c3.769 0 7.649 0 11.086-.222 2.217 0 3.88-.222 2.661-.443-1.552-.333-4.878-.665-6.652-.665h-65.848c-6.43 0-17.294 0-20.065.886-4.102 1.33 12.526 1.33 20.951 1.442 19.844.221 54.431-1.109 57.867-1.109v.11Z" clip-rule="evenodd"/><path fill="#191847" fill-rule="evenodd" d="M253.417 34.809a3.326 3.326 0 0 0 2.772-3.215v-2.66a3.33 3.33 0 0 0-4.521-2.83 3.32 3.32 0 0 0-1.576 1.277l-.222.555c-.554 1.552-1.33 6.208-.554 6.984h4.101v-.111Z" clip-rule="evenodd"/><path fill="#D4A181" fill-rule="evenodd" d="M254.637 31.261c.665-.776 1.108-1.773.998-2.771-.222-3.104-4.435-2.439-5.322-.887-.886 1.552-.776 5.543.333 5.765.443 0 1.33-.222 2.217-.776l-.554 4.101h3.436l-1.108-5.542v.11Z" clip-rule="evenodd"/><path fill="#191847" fill-rule="evenodd" d="M253.64 29.599c-.333 1.884-.333 4.656.221 5.21h4.213c.222-3.99-1.996-2.439-1.996-6.208l-.332-.222v-.332c-.665-1.441-1.552-2.217-2.661-2.217-1.773 0-2.217.776-2.66 1.44.332 1.331 1.995 1.331 3.215 2.329Z" clip-rule="evenodd"/><path fill="#243033" fill-rule="evenodd" d="M249.981 28.933h-.222.222c0-.11.221-.11.443 0a1.437 1.437 0 0 0-.443 0Zm2.438 0a1.328 1.328 0 0 0-.443 0h.443Z" clip-rule="evenodd"/><path fill="#BA8B72" fill-rule="evenodd" d="M258.738 48.444 253.75 66.07l-2.439 13.192h-2.439l2.993-30.818h6.873Z" clip-rule="evenodd"/><path fill="#D4A181" fill-rule="evenodd" d="M261.067 48.444c-.333 9.201-.222 14.19-.111 14.966 0 .886.554 6.43 3.658 16.074h-2.55c-4.101-9.312-5.542-14.855-5.986-16.074-.554-1.22-1.884-6.208-3.88-14.966h8.869Z" clip-rule="evenodd"/><path fill="#D92228" d="M258.849 48.444c-1.33 6.097-3.658 15.742-6.984 28.934h-3.547a93.104 93.104 0 0 1 3.104-28.934h7.538-.111Z"/><path fill="#333" fill-opacity=".2" d="M258.849 48.444c-1.33 6.097-3.658 15.742-6.984 28.934h-3.547a93.104 93.104 0 0 1 3.104-28.934h7.538-.111Z"/><path fill="#D92228" fill-rule="evenodd" d="M261.066 48.444a97.587 97.587 0 0 0 3.326 29.155h-3.658c-4.213-9.2-7.095-18.18-9.09-29.155h9.422Z" clip-rule="evenodd"/><path fill="#191847" fill-rule="evenodd" d="m264.947 81.258-.111-2.217a5.543 5.543 0 0 1-3.215-.222 12.182 12.182 0 0 1-4.434 1.773.894.894 0 0 0-.645.375.877.877 0 0 0-.131.734h8.203l.333-.443Zm-13.192 0-.111-2.217a5.543 5.543 0 0 1-3.215-.222 12.182 12.182 0 0 1-4.434 1.773.894.894 0 0 0-.645.375.877.877 0 0 0-.131.734h8.203l.333-.443Z" clip-rule="evenodd"/><path fill="#D4A181" fill-rule="evenodd" d="M245.103 33.59s.222 0 .111.443c0 .443-.222 1.108-.333 1.108-.554 0-.443-.554-.332-1.108.221-.333.332-.444.554-.444Zm.111 3.436v.998c-.333.221-.776.332-1.109.221-.222 0-.443-.221-.665-.776 0-.221 0-.11-.222-.332l-.111-.222a.914.914 0 0 1 0-.222l-.221-.665.111-.554a.772.772 0 0 1 .332-.222c.444-.11.998-.11 1.33.111.444.333.555 1.109.555 1.663" clip-rule="evenodd"/><path fill="#243033" fill-rule="evenodd" d="M242.997 31.705c.665 0 .887-.111 1.109.554l1.552 3.547s.222.444 0 .444h-1.885l-.332-.222-1.441-3.88c-.111-.221 0-.554.11-.554" clip-rule="evenodd"/><path fill="#D4A181" fill-rule="evenodd" d="m242.775 33.59.444.11c0 .333 0 .333-.222.444a3.043 3.043 0 0 0-.222 0l.222.554h.333c.48-.014.961-.014 1.441 0 0 0 .222 0 .222.222l-.111.332s.332-.11.332.111l-.111.333-1.108.221-.554.111v.665h-.333l-.333-.11c0-.222-.443-.333-.443-.555v-.443s-.222 0-.222-.222l.222-.665-.222-.665.444-.333h.221v-.11Zm20.952 10.087c3.326 6.652 5.321 10.199 5.654 10.753a13.311 13.311 0 0 0 3.104 1.885c.443.222.333.665.111.776-1.109.887-2.217.11-3.326-.222-1.219-.332-.887 1.109-1.995.887.221-.665.776-1.995.332-2.771l-6.984-10.864 3.104-.444Z" clip-rule="evenodd"/><path fill="#AFB9C5" fill-rule="evenodd" d="m253.529 38.024-1.996-2.217c-1.441 3.658-1.441 7.538-4.101.665l-6.43 2.55c2.661 6.318 4.212 9.755 11.086 7.205 1.884-.665 1.441-5.543 1.441-8.203Z" clip-rule="evenodd"/><path fill="#C5CFD6" fill-rule="evenodd" d="m255.08 34.365-3.547 1.33c.887 6.209-.554 10.421-.998 15.077l9.977-1.44.887 4.877 7.317-1.109a35.145 35.145 0 0 0-13.414-18.845l-.222.11Z" clip-rule="evenodd"/><path fill="#000" fill-opacity=".1" fill-rule="evenodd" d="M257.63 40.795c.776 3.77 1.109 6.762.776 8.869l1.996-.333c-.665-2.993-1.552-5.875-2.772-8.536Z" clip-rule="evenodd"/><path fill="#fff" fill-rule="evenodd" d="M251.865 31.705c0 .222 0 .665-.554.776h-.554c-.222 0-.444 0-.444-.444l1.552-.332Z" clip-rule="evenodd"/><mask id="b" width="2" height="2" x="251" y="29" maskUnits="userSpaceOnUse" style="mask-type:alpha"><path fill="#fff" d="M251.976 29.488c-.222 0-.332.332-.222.554 0 .222.333.333.555.222.332 0 .443-.333.332-.555 0-.11-.332-.332-.665-.11"/></mask><g mask="url(#b)"><path fill="#fff" d="M251.976 29.488c-.222 0-.332.332-.222.554 0 .222.333.333.555.222.332 0 .443-.333.332-.555 0-.11-.332-.332-.665-.11"/><path fill="#29353A" fill-rule="evenodd" d="m251.644 29.931.443.222c.111 0 .222-.222.111-.444l-.333-.11c-.221 0-.221.221-.221.332" clip-rule="evenodd"/><path fill="#29353A" d="M252.309 29.377c-.444 0-.665 0-.665.222.332-.222.665-.222.886 0 .444.443 0-.222-.443-.222h.222Z"/></g><mask id="c" width="2" height="2" x="249" y="29" maskUnits="userSpaceOnUse" style="mask-type:alpha"><path fill="#fff" d="M249.981 29.377c-.111 0-.222.443-.111.665l.554.222c.332-.111.443-.333.332-.555 0-.221-.332-.443-.665-.332"/></mask><g mask="url(#c)"><path fill="#fff" d="M249.981 29.377c-.111 0-.222.443-.111.665l.554.222c.332-.111.443-.333.332-.555 0-.221-.332-.443-.665-.332"/><path fill="#29353A" fill-rule="evenodd" d="M249.648 29.931c.111.111.333.222.443.111l.222-.333c0-.11-.332-.221-.443-.11-.111 0-.222.11-.222.332Z" clip-rule="evenodd"/><path fill="#29353A" d="M250.313 29.266c.222 0 .444.222.444.333-.333-.222-.555-.222-.887 0-.444.332 0-.333.443-.333Z"/></g><path fill="#C92039" fill-rule="evenodd" d="M249.76 30.264a.777.777 0 0 0 .776 0l.222-.665c0-.222-.444-.333-.666-.333h-.554c0 .222-.111.887.222 1.109v-.111Zm1.995.11c.222.111.555.222.887 0 .333 0 .333-.664.222-.886l-.665-.111c-.222 0-.665 0-.665.333 0 .332 0 .554.221.665Zm1.441-.664 1.552.11a.22.22 0 0 0 .222-.221l-1.774-.111v-.111c-.295-.041-.59-.078-.886-.11h-1.109a.776.776 0 0 1-.333 0l-.886-.112h-.666v.333c0 .443 0 .887.333.997.222 0 .776.111 1.109-.11.221-.333.11-.776.332-.776.333 0 .111.443.444.776.221.332.776.332 1.108.221.333 0 .444-.443.444-.776a.295.295 0 0 1 0-.11h.11Z" clip-rule="evenodd"/><path fill="url(#d)" d="M251.2 29.71c-.554.554-.887.886-.887 1.108 0 .222.222.333.776.444l.111-1.553Z"/><mask id="e" width="9" height="14" x="225" y="19" maskUnits="userSpaceOnUse" style="mask-type:alpha"><path fill="#fff" d="M225.925 23.39c-.554.444-.776.777-.887.998 0 .111.222.222.776.333 0 1.663.444 3.215 1.109 3.326.554.221 1.663-.111 2.882-.887l-.887 5.32h4.435l-1.442-6.983c.776-.998 1.331-2.328 1.22-3.547-.222-3.88-5.543-3.104-6.652-1.11-.332.666-.554 1.553-.554 2.55Z"/></mask><g mask="url(#e)"><path fill="#D4A181" d="M225.925 23.39c-.554.444-.776.777-.887.998 0 .111.222.222.776.333 0 1.663.444 3.215 1.109 3.326.554.221 1.663-.111 2.882-.887l-.887 5.32h4.435l-1.442-6.983c.776-.998 1.331-2.328 1.22-3.547-.222-3.88-5.543-3.104-6.652-1.11-.332.666-.554 1.553-.554 2.55Z"/><path fill="#fff" fill-rule="evenodd" d="m226.145 26.273.546-.096s.058.327-.379.404l-.436.077c-.109.02-.347-.051-.276-.289l.545-.096" clip-rule="evenodd"/></g><path fill="#191847" fill-rule="evenodd" d="M230.249 22.837a1.109 1.109 0 0 1 1.108 1.108 1.11 1.11 0 0 1-.222.776l.776 1.109c1.22-.776 2.218-2.883 1.109-4.989-.554-1.108-1.219-1.552-2.106-1.774-.665-.332-1.441-.332-1.996-.11a6.65 6.65 0 0 0-2.66.665c0 1.108.222 1.552 2.217 1.44.332.333.776.666 1.108 1.22-.11 2.217-.554 3.326-1.33 3.326-1.108 0-1.884-.444-2.439-.444-.332 0-.221.444 0 .666.222.332 1.22 0 1.22.332 0 .444-.887.776-.887.998 0 .332 0 1.108.554 1.108.776 0 2.772-.221 3.104-1.33.222-.665.333-1.995.444-4.101Z" clip-rule="evenodd"/><path fill="#191847" fill-rule="evenodd" d="m227.921 21.839.443.11-.443-.332c-.111 0-.555-.222-.887-.11l-.111.11 1.108.222" clip-rule="evenodd"/><mask id="f" width="2" height="2" x="226" y="22" maskUnits="userSpaceOnUse" style="mask-type:alpha"><path fill="#fff" d="M226.922 22.615c-.332 0-.443.443-.332.665.111.332.554.443.887.332.332-.11.443-.443.443-.775 0 0-.443-.222-1.108-.222h.11Z"/></mask><g mask="url(#f)"><path fill="#fff" d="M226.922 22.615c-.332 0-.443.443-.332.665.111.332.554.443.887.332.332-.11.443-.443.443-.775 0 0-.443-.222-1.108-.222h.11Z"/><path fill="#191847" fill-rule="evenodd" d="M226.479 23.28c0 .11.333.222.554.11.222-.11.222-.11.222-.443l-.554-.221c-.222.11-.333.332-.222.554Z" clip-rule="evenodd"/><path fill="#8B572A" fill-rule="evenodd" d="m228.03 22.947-.332-.332a2.438 2.438 0 0 0-.665-.222l-.222.11.776.223.443.221Z" clip-rule="evenodd"/></g><path fill="#B81D22" fill-rule="evenodd" d="M227.477 31.372c-.111 6.652-2.217 12.638-5.986 19.622l3.991 1.33c5.321-5.543 7.427-8.647 6.651-14.411-.111-1.441-1.774-5.543-2.55-7.76l-2.106 1.22Z" clip-rule="evenodd"/><path fill="#191847" fill-rule="evenodd" d="m235.348 47.557-5.764 13.968-4.656 16.85h-3.326l4.434-29.82 9.312-.998Z" clip-rule="evenodd"/><path fill="#2F3676" fill-rule="evenodd" d="M237.565 43.788c.111 13.857 1.109 25.386 2.883 34.588H236.9c-2.993-9.978-6.097-18.846-6.762-20.509-.665-1.552 1.774-7.76-1.33-19.067l8.757 4.988Z" clip-rule="evenodd"/><path fill="#191847" fill-rule="evenodd" d="m240.78 82.144-.222-3.99h-3.88a21.828 21.828 0 0 1-6.984 3.325v.665h6.873l2.328-.332v.332h1.885Zm-15.409 0-.111-3.99h-3.88a21.841 21.841 0 0 1-7.095 3.325v.665h6.984l2.328-.332v.332h1.885-.111Z" clip-rule="evenodd"/><path fill="#D4A181" fill-rule="evenodd" d="M214.064 30.707c-.444 0-1.885 0-2.328-.332-.555-.222-1.109-.887-1.22-1.109h-.887a1.23 1.23 0 0 1-.886 0l-1.774-.443c-.333 0-.776-.222-.887 0 0 .221 0 .221.333.443l.886.333c.333.11.555.443.555.443l-.111.443.222.444v.554c.332 0 0 .555.554.776.443.333 2.106.333 2.882.333.776 0 2.661.221 2.882.11.222 0-.221-1.995-.221-1.995" clip-rule="evenodd"/><path fill="#F2F2F2" fill-rule="evenodd" d="m239.339 48.444-13.525 1.885a84.265 84.265 0 0 0 1.996-20.176c0-.111.222-.554.332-.444 1.109 0 2.218-.221 3.326-.886 3.991 4.766 5.986 11.085 7.76 19.621h.111Z" clip-rule="evenodd"/><path fill="#D0021B" fill-rule="evenodd" d="M230.47 29.044c-3.99.555-10.087 2.217-17.737.776l-.221 3.77c5.986 2.77 11.972 4.766 16.739 3.658-.776 9.533.333 17.072 4.989 16.406 2.217-.332 4.323-.443 6.097-.554 0-7.982-3.326-18.846-6.873-23.945-.222-.11-.444-.554-.998-.443l-2.106.332h.11Z" clip-rule="evenodd"/><defs><linearGradient id="a" x1="193.72" x2="193.72" y1="97.529" y2="-29.032" gradientUnits="userSpaceOnUse"><stop stop-color="#E0E0E0" stop-opacity="0"/><stop offset="1" stop-color="#D5D5D5"/></linearGradient><linearGradient id="d" x1="250.417" x2="251.108" y1="30.485" y2="30.508" gradientUnits="userSpaceOnUse"><stop stop-color="#ECCFB7"/><stop offset="1" stop-color="#D4A181"/></linearGradient></defs></svg>