<svg width="0" height="0" class="hidden">
  <symbol xmlns="http://www.w3.org/2000/svg" data-testid="spot-rent" viewBox="0 0 48 48" id="spot-rent">
    <path fill="#fff" fill-rule="evenodd" d="M33.4 14.8a9 9 0 0 1-9 9h-1.564a9.068 9.068 0 0 0 1.657 2.69l-3.01 13.838a1 1 0 0 0 .11.713l2.307 3.995a1 1 0 0 0 1.366.366l3.464-2a1 1 0 0 0 .366-1.366l-1.775-3.074a.25.25 0 0 1 .092-.342l3.074-1.775a1 1 0 0 0 .366-1.366l-1.775-3.074a.25.25 0 0 1 .092-.342l6.533-3.772.005-.003a9 9 0 0 0-2.878-16.647 8.98 8.98 0 0 1 .57 3.159Z" clip-rule="evenodd"></path>
    <path fill="#620F12" d="M33.147 16.085a2.502 2.502 0 0 1 1.768 3.062 2.5 2.5 0 0 1-3.062 1.768L32.5 18.5l.647-2.415Z"></path>
    <path fill="#620F12" fill-rule="evenodd" d="M33.756 12.91a8 8 0 0 1 1.452 14.512l-6.538 3.776a1.25 1.25 0 0 0-.458 1.707l1.775 3.074-3.074 1.775a1.25 1.25 0 0 0-.458 1.708l1.775 3.074-3.464 2-2.307-3.995 3.011-13.84.108-.497-.338-.38a8.042 8.042 0 0 1-1.25-1.88 8.951 8.951 0 0 1-.886-.144h-1.336a10.058 10.058 0 0 0 1.643 2.958l-2.906 13.358a2 2 0 0 0 .222 1.425l2.307 3.995a2 2 0 0 0 2.732.732l3.464-2a2 2 0 0 0 .732-2.732l-1.4-2.425 2.425-1.4a2 2 0 0 0 .732-2.732l-1.4-2.425 5.89-3.4c4.782-2.76 6.42-8.877 3.66-13.66a9.98 9.98 0 0 0-6.997-4.86c.392.705.693 1.47.884 2.277Z" clip-rule="evenodd"></path>
    <path fill="#D92228" fill-rule="evenodd" d="M24 5c-5.523 0-10 4.477-10 10 0 .867.11 1.71.319 2.514l-8.789 9.52A2 2 0 0 0 5 28.391V33a2 2 0 0 0 2 2h4a2 2 0 0 0 2-2v-3h3a2 2 0 0 0 2-2v-3h6c5.523 0 10-4.477 10-10S29.523 5 24 5Z" clip-rule="evenodd"></path>
    <path fill="#620F12" d="M29 11.5a2.5 2.5 0 1 1-5 0 2.5 2.5 0 0 1 5 0Z"></path>
    <path fill="#620F12" fill-rule="evenodd" d="M34 4a6 6 0 0 0-6 6 1 1 0 1 1-2 0 8 8 0 1 1 13.143 6.128l-1.286-1.532A6 6 0 0 0 34 4Z" clip-rule="evenodd"></path>
  </symbol>
  <symbol xml:space="preserve" xmlns="http://www.w3.org/2000/svg" enable-background="new 0 0 48 48" viewBox="0 0 48 48" id="2232321_follow_person_profile_icon">
    <path d="M24 8.307c-8.653 0-15.694 7.04-15.694 15.693 0 8.653 7.04 15.693 15.694 15.693S39.694 32.653 39.694 24c0-8.653-7.04-15.693-15.694-15.693zm7.347 23.601H16.653a.35.35 0 0 1-.35-.35c0-4.244 3.453-7.697 7.697-7.697s7.697 3.453 7.697 7.698a.35.35 0 0 1-.35.35zM24 16.092c2.13 0 3.864 1.734 3.864 3.865S26.13 23.821 24 23.821s-3.865-1.733-3.865-3.864 1.734-3.865 3.865-3.865zm-2.495-4.532a.35.35 0 0 1 .284-.406c.553-.098 1.11-.161 1.657-.189a.35.35 0 1 1 .035.7c-.518.025-1.046.085-1.57.179a.35.35 0 0 1-.406-.284zm-6.308 2.863c1.165-1.004 3.02-2.33 5.239-2.958a.35.35 0 0 1 .19.674c-2.096.592-3.86 1.857-4.972 2.814a.349.349 0 0 1-.494-.036.35.35 0 0 1 .037-.494z" fill="#000000"></path>
  </symbol>
  <symbol xmlns="http://www.w3.org/2000/svg" viewBox="0 0 32 32" id="4115230_cancel_close_delete_icon">
    <defs></defs>
    <title></title>
    <g id="cross">
      <line x1="7" x2="25" y1="7" y2="25"></line>
      <line x1="7" x2="25" y1="25" y2="7"></line>
    </g>
  </symbol>
  <symbol xmlns="http://www.w3.org/2000/svg" viewBox="0 0 448 512" id="linkedIn">
    <path d="M100.28 448H7.4V148.9h92.88zM53.79 108.1C24.09 108.1 0 83.5 0 53.8a53.79 53.79 0 0 1 107.58 0c0 29.7-24.1 54.3-53.79 54.3zM447.9 448h-92.68V302.4c0-34.7-.7-79.2-48.29-79.2-48.29 0-55.69 37.7-55.69 76.7V448h-92.78V148.9h89.08v40.8h1.3c12.4-23.5 42.69-48.3 87.88-48.3 94 0 111.28 61.9 111.28 142.3V448z"></path>
  </symbol>
  <symbol xmlns="http://www.w3.org/2000/svg" fill="none" viewBox="0 0 1200 1227" id="X">
    <g clip-path="url(#clip0_1_2)">
      <path d="M714.163 519.284L1160.89 0H1055.03L667.137 450.887L357.328 0H0L468.492 681.821L0 1226.37H105.866L515.491 750.218L842.672 1226.37H1200L714.137 519.284H714.163ZM569.165 687.828L521.697 619.934L144.011 79.6944H306.615L611.412 515.685L658.88 583.579L1055.08 1150.3H892.476L569.165 687.854V687.828Z" fill="black"></path>
    </g>
    <defs>
      <clipPath id="clip0_1_2">
        <rect width="1200" height="1227" fill="white"></rect>
      </clipPath>
    </defs>
  </symbol>
  <symbol version="1.1" xml:space="preserve" xmlns="http://www.w3.org/2000/svg" xmlnsSerif="http://www.serif.com/" xmlns:xlink="http://www.w3.org/1999/xlink" viewBox="0 0 512 512" id="youtube">
    <path d="M501.303,132.765c-5.887,-22.03 -23.235,-39.377 -45.265,-45.265c-39.932,-10.7 -200.038,-10.7 -200.038,-10.7c0,0 -160.107,0 -200.039,10.7c-22.026,5.888 -39.377,23.235 -45.264,45.265c-10.697,39.928 -10.697,123.238 -10.697,123.238c0,0 0,83.308 10.697,123.232c5.887,22.03 23.238,39.382 45.264,45.269c39.932,10.696 200.039,10.696 200.039,10.696c0,0 160.106,0 200.038,-10.696c22.03,-5.887 39.378,-23.239 45.265,-45.269c10.696,-39.924 10.696,-123.232 10.696,-123.232c0,0 0,-83.31 -10.696,-123.238Zm-296.506,200.039l0,-153.603l133.019,76.802l-133.019,76.801Z"></path>
  </symbol>
  <symbol enable-background="new 0 0 56.693 56.693" id="pinterest" version="1.1" xml:space="preserve" xmlns="http://www.w3.org/2000/svg" xmlns:xlink="http://www.w3.org/1999/xlink" viewBox="0 0 56.693 56.693">
    <g>
      <path d="M28.348,5.158c-13.599,0-24.625,11.023-24.625,24.625c0,10.082,6.063,18.744,14.739,22.553   c-0.069-1.721-0.012-3.783,0.429-5.654c0.473-2,3.168-13.418,3.168-13.418s-0.787-1.572-0.787-3.896   c0-3.648,2.115-6.373,4.749-6.373c2.24,0,3.322,1.682,3.322,3.695c0,2.252-1.437,5.619-2.175,8.738   c-0.616,2.613,1.31,4.744,3.887,4.744c4.665,0,7.808-5.992,7.808-13.092c0-5.397-3.635-9.437-10.246-9.437   c-7.47,0-12.123,5.57-12.123,11.792c0,2.146,0.633,3.658,1.624,4.83c0.455,0.537,0.519,0.754,0.354,1.371   c-0.118,0.453-0.389,1.545-0.501,1.977c-0.164,0.625-0.669,0.848-1.233,0.617c-3.44-1.404-5.043-5.172-5.043-9.408   c0-6.994,5.899-15.382,17.599-15.382c9.4,0,15.588,6.804,15.588,14.107c0,9.658-5.369,16.875-13.285,16.875   c-2.659,0-5.16-1.438-6.016-3.068c0,0-1.43,5.674-1.732,6.768c-0.522,1.9-1.545,3.797-2.479,5.275   c2.215,0.654,4.554,1.01,6.979,1.01c13.598,0,24.623-11.023,24.623-24.623C52.971,16.181,41.945,5.158,28.348,5.158z"></path>
    </g>
  </symbol>
  <symbol enable-background="new 0 0 56.693 56.693" id="facebook" version="1.1" xml:space="preserve" xmlns="http://www.w3.org/2000/svg" xmlns:xlink="http://www.w3.org/1999/xlink" viewBox="0 0 56.693 56.693">
    <path d="M28.347,5.157c-13.6,0-24.625,11.027-24.625,24.625c0,13.6,11.025,24.623,24.625,24.623c13.6,0,24.625-11.023,24.625-24.623  C52.972,16.184,41.946,5.157,28.347,5.157z M34.864,29.679h-4.264c0,6.814,0,15.207,0,15.207h-6.32c0,0,0-8.307,0-15.207h-3.006  V24.31h3.006v-3.479c0-2.49,1.182-6.377,6.379-6.377l4.68,0.018v5.215c0,0-2.846,0-3.398,0c-0.555,0-1.34,0.277-1.34,1.461v3.163  h4.818L34.864,29.679z"></path>
  </symbol>
  <symbol version="1.1" id="instagram" xmlns="http://www.w3.org/2000/svg" xmlns:xlink="http://www.w3.org/1999/xlink" x="0px" y="0px" enable-background="new 0 0 56.7 56.7" xml:space="preserve" viewBox="0 0 56.7 56.7">
    <g>
      <path d="M28.2,16.7c-7,0-12.8,5.7-12.8,12.8s5.7,12.8,12.8,12.8S41,36.5,41,29.5S35.2,16.7,28.2,16.7z M28.2,37.7
		c-4.5,0-8.2-3.7-8.2-8.2s3.7-8.2,8.2-8.2s8.2,3.7,8.2,8.2S32.7,37.7,28.2,37.7z"></path>
      <circle cx="41.5" cy="16.4" r="2.9"></circle>
      <path d="M49,8.9c-2.6-2.7-6.3-4.1-10.5-4.1H17.9c-8.7,0-14.5,5.8-14.5,14.5v20.5c0,4.3,1.4,8,4.2,10.7c2.7,2.6,6.3,3.9,10.4,3.9
		h20.4c4.3,0,7.9-1.4,10.5-3.9c2.7-2.6,4.1-6.3,4.1-10.6V19.3C53,15.1,51.6,11.5,49,8.9z M48.6,39.9c0,3.1-1.1,5.6-2.9,7.3
		s-4.3,2.6-7.3,2.6H18c-3,0-5.5-0.9-7.3-2.6C8.9,45.4,8,42.9,8,39.8V19.3c0-3,0.9-5.5,2.7-7.3c1.7-1.7,4.3-2.6,7.3-2.6h20.6
		c3,0,5.5,0.9,7.3,2.7c1.7,1.8,2.7,4.3,2.7,7.2V39.9L48.6,39.9z"></path>
    </g>
  </symbol>
  <symbol xmlns="http://www.w3.org/2000/svg" data-testid="spot-money-stack" viewBox="0 0 48 48" id="spot-money-stack">
    <path fill="#D92228" d="M10 39.95v-19.9c0-.58.47-1.05 1.05-1.05h34.9c.58 0 1.05.47 1.05 1.05v19.9c0 .58-.47 1.05-1.05 1.05h-34.9c-.58 0-1.05-.47-1.05-1.05Z"></path>
    <path fill="#fff" d="M35 30c0 4.418-2.91 8-6.5 8S22 34.418 22 30s2.91-8 6.5-8 6.5 3.582 6.5 8Z"></path>
    <path fill="#620F12" fill-rule="evenodd" d="M28.5 24a1 1 0 0 1 1 1v.07c.732.106 1.41.327 1.971.648C32.253 26.164 33 26.934 33 28a1 1 0 1 1-2 0c0-.038-.036-.269-.521-.546a3.395 3.395 0 0 0-.979-.354v1.95c.373.04.806.113 1.232.244.487.15 1.043.4 1.489.833.472.46.779 1.09.779 1.873 0 .784-.307 1.413-.78 1.873-.445.433-1 .683-1.488.833a6.83 6.83 0 0 1-1.232.244V35a1 1 0 1 1-2 0v-.07c-.732-.106-1.41-.327-1.971-.648C24.747 33.837 24 33.066 24 32a1 1 0 1 1 2 0c0 .039.036.269.521.546.257.147.59.272.979.354v-1.95a6.682 6.682 0 0 1-1.232-.244c-.487-.15-1.043-.4-1.489-.833A2.548 2.548 0 0 1 24 28c0-.784.307-1.413.78-1.873.445-.433 1-.683 1.488-.833a6.83 6.83 0 0 1 1.232-.244V25a1 1 0 0 1 1-1Zm-1 3.066a4.28 4.28 0 0 0-.643.14c-.325.1-.55.225-.683.355A.553.553 0 0 0 26 28c0 .216.068.337.174.44.133.129.358.254.683.354.212.066.433.11.643.14v-1.869Zm2 4v1.869a4.3 4.3 0 0 0 .643-.14c.325-.1.55-.226.683-.355A.553.553 0 0 0 31 32a.553.553 0 0 0-.174-.44c-.133-.129-.358-.254-.683-.354a4.3 4.3 0 0 0-.643-.14Z" clip-rule="evenodd"></path>
    <path fill="#fff" d="M18 29.5a2.5 2.5 0 1 1-5 0 2.5 2.5 0 0 1 5 0Zm26 0a2.5 2.5 0 1 1-5 0 2.5 2.5 0 0 1 5 0ZM16 41h-5a1 1 0 0 1-1-1v-5c2.549 0 6 3.451 6 6Zm25-22h5a1 1 0 0 1 1 1v5c-2.549 0-6-3.451-6-6Zm-31 6v-5a1 1 0 0 1 1-1h5c0 2.549-3.451 6-6 6Zm37 10v5a1 1 0 0 1-1 1h-5c0-2.549 3.451-6 6-6Z"></path>
    <path fill="#620F12" fill-rule="evenodd" d="M16.498 39c-.852-1.828-2.67-3.646-4.498-4.498-.682-.318-1.365-.502-2-.502v6a1 1 0 0 0 1 1h6c0-.635-.184-1.318-.502-2Zm-2.297 0a8.29 8.29 0 0 0-1-1.201 8.29 8.29 0 0 0-1.201-1V39h2.201Zm26.301-18c.852 1.828 2.67 3.646 4.498 4.498.682.318 1.365.502 2 .502v-6a1 1 0 0 0-1-1h-6c0 .635.184 1.318.502 2Zm2.297 0c.265.39.597.798 1 1.201s.81.735 1.201 1V21h-2.201ZM12 24.428c1.373-.728 2.7-2.055 3.428-3.428.359-.678.572-1.367.572-2h-5a1 1 0 0 0-1 1v5c.633 0 1.322-.213 2-.572Zm0-2.396A7.202 7.202 0 0 0 13.032 21H12v1.032Zm33 12.47c-1.828.852-3.646 2.67-4.498 4.498-.318.682-.502 1.365-.502 2h6a1 1 0 0 0 1-1v-6c-.635 0-1.318.184-2 .502Zm0 2.297a8.29 8.29 0 0 0-1.201 1 8.29 8.29 0 0 0-1 1.201H45v-2.201Z" clip-rule="evenodd"></path>
    <path fill="#D92228" d="M6 33.95v-19.9c0-.58.47-1.05 1.05-1.05h34.9c.58 0 1.05.47 1.05 1.05v19.9c0 .58-.47 1.05-1.05 1.05H7.05C6.47 35 6 34.53 6 33.95Z"></path>
    <path fill="#fff" d="M31 24c0 4.418-2.91 8-6.5 8S18 28.418 18 24s2.91-8 6.5-8 6.5 3.582 6.5 8Z"></path>
    <path fill="#620F12" fill-rule="evenodd" d="M24.5 18a1 1 0 0 1 1 1v.07c.732.106 1.41.327 1.971.648C28.253 20.164 29 20.934 29 22a1 1 0 1 1-2 0c0-.038-.036-.269-.521-.546a3.395 3.395 0 0 0-.979-.354v1.95c.373.04.806.113 1.232.244.487.15 1.043.4 1.489.833.472.46.779 1.09.779 1.873 0 .784-.307 1.413-.78 1.873-.445.433-1 .683-1.488.833a6.83 6.83 0 0 1-1.232.244V29a1 1 0 1 1-2 0v-.07c-.732-.106-1.41-.327-1.971-.648C20.747 27.836 20 27.066 20 26a1 1 0 1 1 2 0c0 .039.036.269.521.546.257.147.59.272.979.354v-1.95a6.682 6.682 0 0 1-1.232-.244c-.487-.15-1.043-.4-1.489-.833A2.548 2.548 0 0 1 20 22c0-.784.307-1.413.78-1.873.445-.433 1-.683 1.488-.833a6.83 6.83 0 0 1 1.232-.244V19a1 1 0 0 1 1-1Zm-1 3.066a4.28 4.28 0 0 0-.643.14c-.325.1-.55.225-.683.355A.553.553 0 0 0 22 22c0 .216.068.337.174.44.133.129.358.254.683.354.212.066.433.11.643.14v-1.869Zm2 4v1.869a4.3 4.3 0 0 0 .643-.14c.325-.1.55-.226.683-.356A.553.553 0 0 0 27 26a.553.553 0 0 0-.174-.44c-.133-.129-.358-.254-.683-.354a4.3 4.3 0 0 0-.643-.14Z" clip-rule="evenodd"></path>
    <path fill="#fff" d="M14 23.5a2.5 2.5 0 1 1-5 0 2.5 2.5 0 0 1 5 0Zm26 0a2.5 2.5 0 1 1-5 0 2.5 2.5 0 0 1 5 0ZM12 35H7a1 1 0 0 1-1-1v-5c2.549 0 6 3.451 6 6Zm25-22h5a1 1 0 0 1 1 1v5c-2.549 0-6-3.451-6-6ZM6 19v-5a1 1 0 0 1 1-1h5c0 2.549-3.451 6-6 6Zm37 10v5a1 1 0 0 1-1 1h-5c0-2.549 3.451-6 6-6Z"></path>
    <path fill="#620F12" fill-rule="evenodd" d="M12.498 33c-.852-1.828-2.67-3.646-4.498-4.498C7.318 28.183 6.635 28 6 28v6a1 1 0 0 0 1 1h6c0-.635-.184-1.318-.502-2Zm-2.297 0a8.287 8.287 0 0 0-1-1.201 8.289 8.289 0 0 0-1.201-1V33h2.201Z" clip-rule="evenodd"></path>
    <path fill="#620F12" fill-rule="evenodd" d="M38 35H11v-2h27v2Zm-1.498-20c.852 1.828 2.67 3.646 4.498 4.498.682.318 1.365.502 2 .502v-6a1 1 0 0 0-1-1h-6c0 .635.184 1.318.502 2Zm2.297 0c.265.39.597.798 1 1.201s.81.735 1.201 1V15h-2.201ZM8 18.428c1.373-.728 2.7-2.055 3.428-3.428.359-.678.572-1.367.572-2H7a1 1 0 0 0-1 1v5c.633 0 1.322-.213 2-.572Zm0-2.396A7.205 7.205 0 0 0 9.032 15H8v1.032Z" clip-rule="evenodd"></path>
    <path fill="#620F12" fill-rule="evenodd" d="M41 28.502c-1.828.852-3.646 2.67-4.498 4.498-.318.682-.502 1.365-.502 2h6a1 1 0 0 0 1-1v-6c-.635 0-1.318.184-2 .502Zm0 2.297a8.29 8.29 0 0 0-1.201 1 8.29 8.29 0 0 0-1 1.201H41v-2.201Z" clip-rule="evenodd"></path>
    <path fill="#620F12" fill-rule="evenodd" d="M43 18v13h-2V18h2Z" clip-rule="evenodd"></path>
    <path fill="#D92228" d="M1 27.95V8.05C1 7.47 1.47 7 2.05 7h34.9c.58 0 1.05.47 1.05 1.05v19.9c0 .58-.47 1.05-1.05 1.05H2.05C1.47 29 1 28.53 1 27.95Z"></path>
    <path fill="#fff" d="M32 7h5a1 1 0 0 1 1 1v5c-2.549 0-6-3.451-6-6ZM9 17.5a2.5 2.5 0 1 1-5 0 2.5 2.5 0 0 1 5 0ZM32.5 20a2.5 2.5 0 1 0 0-5 2.5 2.5 0 0 0 0 5ZM2 29h5c0-2.549-3.451-6-6-6v5a1 1 0 0 0 1 1ZM1 13V8a1 1 0 0 1 1-1h5c0 2.549-3.451 6-6 6Zm37 10v5a1 1 0 0 1-1 1h-5c0-2.549 3.451-6 6-6Zm-18.5 3c3.59 0 6.5-3.582 6.5-8s-2.91-8-6.5-8-6.5 3.582-6.5 8 2.91 8 6.5 8Z"></path>
    <path fill="#620F12" fill-rule="evenodd" d="M36 13.498c-1.828-.852-3.646-2.67-4.498-4.498C31.183 8.318 31 7.635 31 7h6a1 1 0 0 1 1 1v20a1 1 0 0 1-1 1H2a1 1 0 0 1-1-1v-6c.635 0 1.318.184 2 .502 1.828.852 3.646 2.67 4.498 4.498h24.003c.853-1.828 2.67-3.646 4.499-4.498v-9.003Zm0 11.3V27h-2.201a8.29 8.29 0 0 1 1-1.201 8.29 8.29 0 0 1 1.201-1Zm-1.201-14.597a8.29 8.29 0 0 1-1-1.201H36v2.201a8.29 8.29 0 0 1-1.201-1ZM4.201 25.799c.403.403.735.81 1 1.201H3v-2.201c.39.265.798.597 1.201 1ZM3 13.498c1.828-.852 3.646-2.67 4.498-4.498C7.816 8.318 8 7.635 8 7H2a1 1 0 0 0-1 1v6c.635 0 1.318-.184 2-.502Zm0-2.297c.39-.265.798-.597 1.201-1s.735-.81 1-1.201H3v2.201Z" clip-rule="evenodd"></path>
    <path fill="#620F12" fill-rule="evenodd" d="M19.5 12a1 1 0 0 1 1 1v.07c.732.106 1.41.327 1.971.648C23.253 14.164 24 14.934 24 16a1 1 0 1 1-2 0c0-.039-.036-.269-.521-.546a3.395 3.395 0 0 0-.979-.354v1.95c.373.04.806.113 1.232.244.487.15 1.043.4 1.489.833.472.46.779 1.09.779 1.873 0 .784-.307 1.413-.78 1.873-.445.433-1 .683-1.488.833a6.83 6.83 0 0 1-1.232.244V23a1 1 0 1 1-2 0v-.07c-.732-.106-1.41-.327-1.971-.648C15.747 21.836 15 21.066 15 20a1 1 0 1 1 2 0c0 .039.036.269.521.546.257.147.59.272.979.354v-1.95a6.682 6.682 0 0 1-1.232-.244c-.487-.15-1.043-.4-1.489-.833A2.548 2.548 0 0 1 15 16c0-.784.307-1.413.78-1.873.445-.433 1-.683 1.488-.833a6.83 6.83 0 0 1 1.232-.244V13a1 1 0 0 1 1-1Zm-1 3.066a4.28 4.28 0 0 0-.643.14c-.325.1-.55.225-.683.354A.553.553 0 0 0 17 16c0 .216.068.337.174.44.133.129.358.254.683.354.212.066.433.11.643.14v-1.869Zm2 4v1.869a4.3 4.3 0 0 0 .643-.14c.325-.1.55-.226.683-.356A.553.553 0 0 0 22 20a.553.553 0 0 0-.174-.44c-.133-.129-.358-.254-.683-.354a4.3 4.3 0 0 0-.643-.14Z" clip-rule="evenodd"></path>
  </symbol>
  <symbol xmlns="http://www.w3.org/2000/svg" data-testid="spot-calculator" viewBox="0 0 48 48" id="spot-calculator">
    <path fill="#D92228" d="M8 5a3 3 0 0 1 3-3h26a3 3 0 0 1 3 3v38a3 3 0 0 1-3 3H11a3 3 0 0 1-3-3V5Z"></path>
    <circle cx="15" cy="21" r="2" fill="#fff"></circle>
    <circle cx="15" cy="30" r="2" fill="#fff"></circle>
    <circle cx="24" cy="21" r="2" fill="#fff"></circle>
    <circle cx="24" cy="30" r="2" fill="#fff"></circle>
    <circle cx="33" cy="21" r="2" fill="#fff"></circle>
    <circle cx="33" cy="30" r="2" fill="#fff"></circle>
    <circle cx="33" cy="39" r="2" fill="#fff"></circle>
    <rect width="15" height="4" x="12" y="37" fill="#fff" rx="2"></rect>
    <path fill="#fff" d="M12 8.4A2.4 2.4 0 0 1 14.4 6h19.2A2.4 2.4 0 0 1 36 8.4v4.2a2.4 2.4 0 0 1-2.4 2.4H14.4a2.4 2.4 0 0 1-2.4-2.4V8.4Z"></path>
  </symbol>
  <symbol version="1.0" xmlns="http://www.w3.org/2000/svg" preserveAspectRatio="xMidYMid meet" viewBox="0 0 1122.000000 319.000000" id="Logo">
    <metadata>Created by potrace 1.16, written by Peter Selinger 2001-2019</metadata>
    <g transform="translate(0.000000,319.000000) scale(0.100000,-0.100000)" fill="#000000" stroke="none">
      <path d="M751 2356 l-304 -304 49 -55 49 -55 155 151 c85 84 201 197 258 252
l102 100 55 -56 56 -55 -257 -249 -256 -249 427 -420 427 -421 -4 -92 -3 -92
-343 336 -343 336 -53 -52 -52 -52 398 -396 398 -397 0 -88 0 -88 80 0 80 0 0
321 0 322 -396 390 -395 390 198 199 198 198 47 -47 48 -48 -160 -160 -160
-160 52 -53 53 -52 367 367 366 366 256 -248 256 -248 0 -111 0 -111 -255 255
-255 255 -317 -317 -318 -318 52 -52 51 -51 262 254 c143 140 265 254 270 254
5 0 122 -109 259 -243 l251 -244 0 -554 0 -554 75 0 75 0 0 798 0 797 -329
329 -329 329 -205 -209 -206 -209 -208 208 c-114 114 -210 207 -213 207 -3 0
-142 -137 -309 -304z"></path>
      <path d="M4560 1495 l0 -585 50 0 50 0 0 149 0 149 49 41 49 41 130 -187 129
-188 56 -3 c32 -2 57 0 57 3 0 3 -68 106 -151 228 l-151 222 153 148 152 147
-68 0 -68 0 -162 -155 c-90 -85 -165 -155 -169 -155 -3 0 -6 164 -6 365 l0
365 -50 0 -50 0 0 -585z"></path>
      <path d="M6120 1460 l0 -550 60 0 60 0 0 260 0 260 290 0 290 0 0 -260 0 -260
60 0 60 0 0 550 0 550 -60 0 -60 0 0 -240 0 -240 -290 0 -290 0 0 240 0 240
-60 0 -60 0 0 -550z"></path>
      <path d="M3937 1676 c-148 -43 -249 -177 -263 -349 -24 -284 181 -485 446
-439 39 7 94 24 121 38 48 24 139 106 139 125 0 4 -16 19 -37 33 l-36 25 -38
-39 c-55 -56 -109 -81 -194 -87 -52 -4 -85 -1 -122 11 -83 28 -156 123 -170
221 l-6 45 308 0 308 0 -5 83 c-8 140 -85 259 -203 313 -68 31 -178 40 -248
20z m231 -116 c60 -34 96 -91 116 -182 l6 -28 -254 0 -255 0 14 46 c26 86 87
156 160 183 50 18 165 8 213 -19z"></path>
      <path d="M5479 1677 c-158 -45 -256 -180 -267 -369 -16 -308 246 -505 531
-398 54 20 177 118 177 141 0 4 -17 20 -37 33 l-37 25 -51 -48 c-77 -73 -191
-100 -300 -70 -82 22 -175 151 -175 241 l0 28 306 0 307 0 -5 78 c-8 140 -84
259 -203 317 -64 32 -176 42 -246 22z m184 -98 c72 -20 135 -95 156 -188 l9
-41 -254 0 -254 0 6 28 c21 86 93 172 165 198 43 16 123 17 172 3z"></path>
      <path d="M7387 1675 c-186 -51 -300 -262 -257 -477 31 -159 127 -267 270 -304
212 -54 405 73 451 296 14 67 6 189 -15 250 -66 185 -261 287 -449 235z m203
-106 c58 -26 96 -62 128 -124 25 -45 27 -60 27 -160 0 -100 -2 -115 -27 -160
-49 -94 -129 -144 -228 -145 -109 0 -198 65 -240 177 -31 82 -25 215 12 288
49 93 129 145 228 145 34 0 72 -8 100 -21z"></path>
      <path d="M8269 1677 c-53 -20 -95 -52 -121 -95 l-23 -37 -3 58 -3 57 -54 0
-55 0 0 -375 0 -375 54 0 54 0 4 248 c4 226 6 252 27 304 37 95 108 139 199
124 45 -7 81 -33 107 -77 18 -31 20 -55 23 -316 l3 -283 54 0 54 0 3 258 3
258 30 60 c65 127 207 142 289 31 20 -27 21 -42 24 -318 l3 -289 55 0 55 0 -3
303 c-3 272 -5 306 -22 337 -97 183 -325 185 -434 2 l-19 -33 -13 32 c-20 47
-57 87 -103 111 -51 26 -140 33 -188 15z"></path>
      <path d="M9467 1676 c-148 -43 -249 -177 -263 -349 -24 -284 181 -485 446
-439 39 7 94 24 121 38 48 24 139 106 139 125 0 4 -16 19 -37 33 l-36 25 -38
-39 c-55 -56 -109 -81 -194 -87 -52 -4 -85 -1 -122 11 -83 28 -156 123 -170
221 l-6 45 308 0 308 0 -5 83 c-8 140 -85 259 -203 313 -68 31 -178 40 -248
20z m231 -116 c60 -34 96 -91 116 -182 l6 -28 -254 0 -255 0 14 46 c26 86 87
156 160 183 50 18 165 8 213 -19z"></path>
      <path d="M10240 1674 c-97 -26 -156 -90 -167 -182 -16 -138 72 -217 270 -242
141 -17 188 -42 207 -108 29 -105 -59 -170 -216 -160 -83 6 -155 41 -183 89
-9 16 -20 29 -24 29 -18 0 -87 -41 -87 -52 0 -7 26 -37 58 -69 76 -73 134 -94
257 -93 143 1 252 58 291 150 22 51 17 132 -9 179 -42 75 -111 106 -298 133
-123 18 -178 64 -165 140 10 67 68 102 170 102 91 0 168 -40 204 -105 10 -20
11 -20 57 3 50 24 50 28 2 94 -66 89 -227 129 -367 92z"></path>
      <path d="M3000 1610 l0 -50 215 -2 215 -3 -215 -275 c-211 -270 -215 -276
-215 -322 l0 -48 280 0 280 0 0 50 0 50 -216 2 -215 3 215 276 c210 269 216
278 216 323 l0 46 -280 0 -280 0 0 -50z"></path>
      <path d="M1640 1405 l0 -245 250 0 250 0 0 245 0 245 -250 0 -250 0 0 -245z
m340 0 l0 -95 -95 0 -95 0 0 95 0 95 95 0 95 0 0 -95z"></path>
      <path d="M600 710 l0 -170 170 0 170 0 0 170 0 170 -170 0 -170 0 0 -170z"></path>
    </g>
  </symbol>
  <symbol xmlns="http://www.w3.org/2000/svg" data-testid="spot-badge-cash-reward" viewBox="0 0 48 48" id="spot-badge-cash-reward">
    <path fill="#D92228" d="M21.024 5.374c1.428-2.1 4.524-2.1 5.952 0l2.255 3.314 3.84-1.408c2.43-.892 4.98.998 4.833 3.584l-.209 3.673 3.688.933c2.587.655 3.587 3.8 1.853 5.828L40.93 24l2.307 2.701c1.734 2.03.734 5.174-1.853 5.829l-3.688.933.21 3.673c.146 2.586-2.404 4.476-4.835 3.584l-3.839-1.408-2.255 3.314c-1.428 2.1-4.524 2.1-5.952 0l-2.255-3.314-3.839 1.408c-2.431.892-4.98-.998-4.834-3.584l.209-3.673-3.688-.933c-2.587-.655-3.587-3.8-1.853-5.829L7.072 24l-2.308-2.702C3.03 19.27 4.03 16.125 6.617 15.47l3.688-.933-.209-3.673c-.147-2.586 2.403-4.476 4.834-3.584l3.839 1.408 2.255-3.314Z"></path>
    <circle cx="24" cy="24" r="12" fill="#fff"></circle>
    <path fill="#620F12" fill-rule="evenodd" d="M24 15a1 1 0 0 1 1 1v1.053c1.149.125 2.205.461 3.05.968C29.115 18.661 30 19.682 30 21a1 1 0 1 1-2 0c0-.34-.234-.817-.979-1.264-.52-.312-1.215-.555-2.021-.668v3.968a9.22 9.22 0 0 1 2.075.387c.667.216 1.392.564 1.959 1.143.591.604.966 1.416.966 2.434 0 1.018-.375 1.83-.966 2.434-.567.58-1.292.927-1.959 1.143a9.22 9.22 0 0 1-2.075.387V32a1 1 0 1 1-2 0v-1.053c-1.149-.125-2.205-.461-3.05-.968C18.885 29.339 18 28.318 18 27a1 1 0 1 1 2 0c0 .34.234.817.979 1.264.52.312 1.215.555 2.021.668v-3.968a9.22 9.22 0 0 1-2.075-.387c-.667-.216-1.392-.564-1.959-1.143C18.375 22.83 18 22.018 18 21c0-1.018.375-1.83.966-2.434.567-.58 1.292-.927 1.959-1.143A9.22 9.22 0 0 1 23 17.036V16a1 1 0 0 1 1-1Zm-1 4.044a6.948 6.948 0 0 0-1.46.283c-.494.16-.886.374-1.145.638-.234.24-.395.553-.395 1.035 0 .482.161.795.395 1.035.26.264.65.479 1.145.638a6.95 6.95 0 0 0 1.46.284v-3.913Zm2 6v3.912a6.948 6.948 0 0 0 1.46-.283c.494-.16.886-.374 1.145-.638.234-.24.395-.553.395-1.035 0-.482-.161-.795-.395-1.035-.26-.264-.65-.479-1.145-.638a6.948 6.948 0 0 0-1.46-.284Z" clip-rule="evenodd"></path>
  </symbol>
  <symbol id="chevron" xmlns="http://www.w3.org/2000/svg" viewBox="0 0 51 51">
    <defs></defs>
    <circle cx="25.5" cy="25.5" r="25.5"></circle>
    <rect x="24.4" y="27.9" width="1.6" height="15.24" rx="0.8" transform="matrix(0.78, -0.63, 0.63, 0.78, -21.26, 15.39)"></rect>
    <rect x="33.3" y="27.9" width="1.6" height="15.24" rx="0.8" transform="translate(24 -21.9) rotate(37.3)"></rect>
  </symbol>
  <symbol id="search" xmlns="http://www.w3.org/2000/svg" viewBox="0 0 21.8 23.8">
    <defs></defs>
    <path d="M11,17.9a8.7,8.7,0,0,0,.8,4.8,1,1,0,0,0,1.2.4.8.8,0,0,0,.4-1.2,8.3,8.3,0,0,1-.7-3.8,7.6,7.6,0,0,1,15.2,1.1A7.7,7.7,0,0,1,16.1,25a.8.8,0,0,0-1.2.2.9.9,0,0,0,.2,1.3A10,10,0,0,0,19.6,28a9.3,9.3,0,0,0,6.1-1.7l5.5,6.4a.9.9,0,0,0,.6.3.7.7,0,0,0,.7-.2.9.9,0,0,0,.1-1.2L27,25.2a8.9,8.9,0,0,0,2.6-5.8A9.3,9.3,0,1,0,11,17.9Z" transform="translate(-10.9 -9.3)"></path>
  </symbol>
  <symbol id="menu" enable-background="new 0 0 24 24" xmlns="http://www.w3.org/2000/svg" viewBox="0 0 24 24">
    <g>
      <path d="m21.5 24h-19c-1.379 0-2.5-1.122-2.5-2.5v-19c0-1.378 1.121-2.5 2.5-2.5h19c1.379 0 2.5 1.122 2.5 2.5v19c0 1.378-1.121 2.5-2.5 2.5zm-19-23c-.827 0-1.5.673-1.5 1.5v19c0 .827.673 1.5 1.5 1.5h19c.827 0 1.5-.673 1.5-1.5v-19c0-.827-.673-1.5-1.5-1.5z"></path>
    </g>
    <g>
      <path d="m16.5 8h-9c-.276 0-.5-.224-.5-.5s.224-.5.5-.5h9c.276 0 .5.224.5.5s-.224.5-.5.5z"></path>
    </g>
    <g>
      <path d="m16.5 12.5h-9c-.276 0-.5-.224-.5-.5s.224-.5.5-.5h9c.276 0 .5.224.5.5s-.224.5-.5.5z"></path>
    </g>
    <g>
      <path d="m16.5 17h-9c-.276 0-.5-.224-.5-.5s.224-.5.5-.5h9c.276 0 .5.224.5.5s-.224.5-.5.5z"></path>
    </g>
  </symbol>
  <symbol xmlns="http://www.w3.org/2000/svg" data-testid="spot-sell" viewBox="0 0 48 48" id="spot-sell">
    <path fill="#fff" d="M26.216 3H40a4 4 0 0 1 4 4v13.869a3 3 0 0 1-.879 2.12L22.096 44.016a3 3 0 0 1-4.097.137L2.917 30.956a2.5 2.5 0 0 1-.203-3.564l21.282-23.41A3 3 0 0 1 26.216 3Z"></path>
    <path fill="#620F12" fill-rule="evenodd" d="M23.256 3.31A4 4 0 0 1 26.216 2H40a5 5 0 0 1 5 5v13.869a4 4 0 0 1-1.172 2.828L22.803 44.722a4 4 0 0 1-5.463.182L2.26 31.708a3.5 3.5 0 0 1-.285-4.988L23.256 3.31Zm2.96.69a2 2 0 0 0-1.48.655L3.454 28.065a1.5 1.5 0 0 0 .122 2.138l15.081 13.196a2 2 0 0 0 2.732-.09l21.025-21.026A2 2 0 0 0 43 20.868V7a3 3 0 0 0-3-3H26.216Z" clip-rule="evenodd"></path>
    <path fill="#620F12" d="M40 9.5a2.5 2.5 0 1 1-5 0 2.5 2.5 0 0 1 5 0Z"></path>
    <path fill="#fff" d="M8.444 30h18.112c.797 0 1.444-.647 1.444-1.444V13.273L17.5 7 7 13.273v15.283C7 29.353 7.647 30 8.444 30Z"></path>
    <path fill="#D92228" d="M28 28V14.028L17 6 6 14.028V28a2 2 0 0 0 2 2h18a2 2 0 0 0 2-2Z"></path>
    <path fill="#fff" d="M21 23a2 2 0 0 0-2-2h-4a2 2 0 0 0-2 2v7h8v-7Z"></path>
    <path fill="#620F12" fill-rule="evenodd" d="M18.042 7.063a1.708 1.708 0 0 0-2.084 0L4.61 15.793a1 1 0 1 1-1.22-1.586l11.349-8.73a3.708 3.708 0 0 1 4.522 0l11.349 8.73a1 1 0 0 1-1.22 1.585l-11.348-8.73Z" clip-rule="evenodd"></path>
    <path fill="#fff" d="M20 14a3 3 0 1 1-6 0 3 3 0 0 1 6 0Z"></path>
    <path fill="#620F12" d="M28 8a1 1 0 0 1 1 1v5l-2-1V9a1 1 0 0 1 1-1Z"></path>
  </symbol>
  <symbol xmlns="http://www.w3.org/2000/svg" data-testid="spot-property-making-an-offer" viewBox="0 0 48 48" id="spot-property-making-an-offer">
    <path fill="#D92228" d="M9.444 42h29.112c.797 0 1.444-.573 1.444-1.28V23L24 11 8 22.5v18.22c0 .707.647 1.28 1.444 1.28Z"></path>
    <path fill="#fff" d="m6.166 18.251 16.219-12.05a2.708 2.708 0 0 1 3.23 0L35 13.172v-5.25c0-.51.448-.923 1-.923h3c.552 0 1 .413 1 .923v8.966l1.834 1.362A2.889 2.889 0 0 1 43 20.571v2.44a1 1 0 0 1-1.596.803L24 10.882 6.596 23.814A1 1 0 0 1 5 23.01v-2.44c0-.915.432-1.775 1.166-2.32Z"></path>
    <path fill="#fff" d="M34 29c0 5.523-4.477 10-10 10s-10-4.477-10-10 4.477-10 10-10 10 4.477 10 10Z"></path>
    <path fill="#620F12" d="M26.212 5.398a3.708 3.708 0 0 0-4.424 0L5.57 17.448A3.889 3.889 0 0 0 4 20.57v2.441c0 1.566 1.698 2.494 3 1.733l2-1.47 15-11.146 15 11.146 2 1.47c1.302.761 3-.168 3-1.733v-2.44a3.89 3.89 0 0 0-1.57-3.122L41 16.386V8a1 1 0 1 0 0-2h-7a1 1 0 1 0 0 2v3.184l-7.788-5.786ZM7 41H1a1 1 0 1 0 0 2h46a1 1 0 1 0 0-2H7Z"></path>
    <path fill="#fff" d="M35 8.168C35 7.523 35.523 7 36.168 7h2.664C39.477 7 40 7.523 40 8.168v10.664c0 .645-.523 1.168-1.168 1.168h-2.664A1.168 1.168 0 0 1 35 18.832V8.168Z"></path>
    <path fill="#620F12" fill-rule="evenodd" d="M34 8.168C34 6.971 34.97 6 36.168 6h2.664C40.029 6 41 6.97 41 8.168V18c0 1.198-.97 2.168-2.168 2.168h-2.664A2.168 2.168 0 0 1 34 18V8.168ZM36.168 8a.168.168 0 0 0-.168.168V18c0 .093.075.168.168.168h2.664A.168.168 0 0 0 39 18V8.168A.168.168 0 0 0 38.832 8h-2.664Z" clip-rule="evenodd"></path>
    <path fill="#620F12" fill-rule="evenodd" d="M33 7a1 1 0 0 1 1-1h7a1 1 0 1 1 0 2h-7a1 1 0 0 1-1-1Z" clip-rule="evenodd"></path>
    <path fill="#fff" d="M22.072 6.624 6.374 18.288A3.43 3.43 0 0 0 4.99 21.04v1.796a1.188 1.188 0 0 0 1.895.953L23.99 11.081l17.104 12.71a1.187 1.187 0 0 0 1.896-.954v-1.796a3.43 3.43 0 0 0-1.385-2.753L25.908 6.624a3.216 3.216 0 0 0-3.836 0Z"></path>
    <path fill="#620F12" fill-rule="evenodd" d="M25.317 7.419a2.227 2.227 0 0 0-2.655 0L6.964 19.082a2.44 2.44 0 0 0-.985 1.96v1.795c0 .163.186.256.316.159L23.99 9.848l17.694 13.148c.13.097.316.004.316-.159v-1.796a2.44 2.44 0 0 0-.985-1.959L25.317 7.42Zm-3.836-1.59a4.206 4.206 0 0 1 5.017 0l15.697 11.665a4.42 4.42 0 0 1 1.784 3.547v1.796c0 1.79-2.039 2.815-3.475 1.748L23.99 12.315 7.476 24.584C6.039 25.652 4 24.627 4 22.837v-1.796a4.42 4.42 0 0 1 1.784-3.547L21.48 5.83Z" clip-rule="evenodd"></path>
    <path fill="#620F12" fill-rule="evenodd" d="M24 21a1 1 0 0 1 1 1v.807c1.008.118 1.936.41 2.686.848.968.565 1.814 1.492 1.814 2.72a1 1 0 1 1-2 0c0-.221-.161-.607-.822-.992-.433-.253-1.009-.455-1.678-.558v3.214a8.476 8.476 0 0 1 1.79.335c.607.19 1.275.5 1.802 1.024.553.55.908 1.294.908 2.227 0 .933-.355 1.678-.908 2.227-.527.524-1.195.834-1.801 1.024A8.476 8.476 0 0 1 25 35.21V36a1 1 0 1 1-2 0v-.807c-1.008-.118-1.936-.41-2.686-.848-.968-.565-1.814-1.492-1.814-2.72a1 1 0 1 1 2 0c0 .221.161.607.822.992.433.253 1.009.455 1.678.558V29.96a8.476 8.476 0 0 1-1.79-.335c-.607-.19-1.275-.5-1.802-1.024-.553-.55-.908-1.294-.908-2.227 0-.933.355-1.678.908-2.227.527-.524 1.195-.834 1.801-1.024A8.476 8.476 0 0 1 23 22.79V22a1 1 0 0 1 1-1Zm-1 3.798c-.37.039-.792.109-1.191.234-.439.138-.776.32-.992.535-.19.189-.317.429-.317.808 0 .38.127.62.317.808.216.215.553.397.992.535.4.125.82.195 1.191.234v-3.154Zm2 5.25v3.154c.37-.039.792-.109 1.191-.234.439-.138.776-.32.992-.535.19-.189.317-.429.317-.808 0-.38-.127-.62-.317-.808-.216-.215-.553-.397-.992-.535-.4-.125-.82-.195-1.191-.234Z" clip-rule="evenodd"></path>
  </symbol>
  <symbol xmlns="http://www.w3.org/2000/svg" data-testid="spot-pending" viewBox="0 0 48 48" id="spot-pending">
    <path fill="#620F12" fill-rule="evenodd" d="M24 7a1 1 0 0 1 1 1v10a1 1 0 1 1-2 0V8a1 1 0 0 1 1-1Zm13 0a1 1 0 0 1 1 1v10a1 1 0 1 1-2 0V8a1 1 0 0 1 1-1ZM0 45a1 1 0 0 1 1-1h46a1 1 0 1 1 0 2H1a1 1 0 0 1-1-1Z" clip-rule="evenodd"></path>
    <path fill="#fff" fill-rule="evenodd" d="M8.5 3A2.5 2.5 0 0 0 6 5.5V7H4a2 2 0 0 0-2 2v1a2 2 0 0 0 2 2h2v33h5V12h31a2 2 0 0 0 2-2V9a2 2 0 0 0-2-2H11V5.5A2.5 2.5 0 0 0 8.5 3Z" clip-rule="evenodd"></path>
    <path fill="#620F12" fill-rule="evenodd" d="M8.5 4A1.5 1.5 0 0 0 7 5.5V8H4a1 1 0 0 0-1 1v1a1 1 0 0 0 1 1h3v33h3V11h32a1 1 0 0 0 1-1V9a1 1 0 0 0-1-1H10V5.5A1.5 1.5 0 0 0 8.5 4ZM5 5.5a3.5 3.5 0 1 1 7 0V6h30a3 3 0 0 1 3 3v1a3 3 0 0 1-3 3H12v33H5V13H4a3 3 0 0 1-3-3V9a3 3 0 0 1 3-3h1v-.5Z" clip-rule="evenodd"></path>
    <path fill="#D92228" d="M16 22a4 4 0 0 1 4-4h22a4 4 0 0 1 4 4v10a4 4 0 0 1-4 4H20a4 4 0 0 1-4-4V22Z"></path>
    <path fill="#620F12" d="M26 27a2 2 0 1 1-4 0 2 2 0 0 1 4 0Zm7 0a2 2 0 1 1-4 0 2 2 0 0 1 4 0Zm7 0a2 2 0 1 1-4 0 2 2 0 0 1 4 0Z"></path>
  </symbol>
  <symbol xmlns="http://www.w3.org/2000/svg" data-testid="spot-profile" viewBox="0 0 48 48" id="spot-profile">
    <circle cx="24" cy="24" r="22" fill="#fff"></circle>
    <path fill="#D92228" d="M37.4 35.761c.116.253 1.42 2.18 1.517 2.438.755 2.02-3.807 6.338-6.034 6.338L28.299 46h-8.595l-3.538-1.463c-3.54-1.462-7.834-2.855-7.079-4.876.097-.258.797-2.408.913-2.661.669-1.451 2.764-2.39 4-3.5 1.236-1.11 2.826-1.411 4.44-2.012L23.475 31h5.078c1.614.601 4.073.725 5.309 1.836 1.235 1.11 2.87 1.474 3.539 2.925ZM32 19a8 8 0 1 1-16 0 8 8 0 0 1 16 0Z"></path>
    <path fill="#D92228" fill-rule="evenodd" d="M33 19a9 9 0 1 1-18 0 9 9 0 0 1 18 0Zm-9 8a8 8 0 1 0 0-16 8 8 0 0 0 0 16Zm-10.605 6.015C16.28 31.398 20.118 30.5 24 30.5c3.882 0 7.72.898 10.605 2.515C37.482 34.627 39.5 37.013 39.5 40h-1c0-2.477-1.669-4.591-4.384-6.113C31.407 32.37 27.745 31.5 24 31.5c-3.745 0-7.407.87-10.116 2.387C11.168 35.41 9.5 37.523 9.5 40h-1c0-2.987 2.018-5.373 4.895-6.985Z" clip-rule="evenodd"></path>
    <path fill="#620F12" fill-rule="evenodd" d="M24 3C12.402 3 3 12.402 3 24s9.402 21 21 21 21-9.402 21-21S35.598 3 24 3ZM1 24C1 11.297 11.297 1 24 1s23 10.297 23 23-10.297 23-23 23S1 36.703 1 24Z" clip-rule="evenodd"></path>
  </symbol>
  <symbol xmlns="http://www.w3.org/2000/svg" data-testid="spot-arrows" viewBox="0 0 48 48" id="spot-arrows">
    <path fill="#620F12" fill-rule="evenodd" d="M0 45a1 1 0 0 1 1-1h46a1 1 0 1 1 0 2H1a1 1 0 0 1-1-1Z" clip-rule="evenodd"></path>
    <path fill="#fff" d="M23.5 3A2.5 2.5 0 0 0 21 5.5V45h5V5.5A2.5 2.5 0 0 0 23.5 3Z"></path>
    <path fill="#620F12" fill-rule="evenodd" d="M20 5.5C20 3.385 21.759 2 23.5 2S27 3.385 27 5.5V46h-7V5.5ZM23.5 4c-.767 0-1.5.615-1.5 1.5V44h3V5.5c0-.885-.733-1.5-1.5-1.5Z" clip-rule="evenodd" opacity=".9"></path>
    <path fill="#fff" d="M33.623 28H9.75a1 1 0 0 0-1 1v4a1 1 0 0 0 1 1h23.873a.5.5 0 0 1 .5.5v2.209c0 .873 1.04 1.327 1.68.733l6.156-5.709a1 1 0 0 0 0-1.466l-6.156-5.71c-.64-.593-1.68-.139-1.68.734V27.5a.5.5 0 0 1-.5.5Z"></path>
    <path fill="#D92228" d="M13.377 19H37.25a1 1 0 0 0 1-1v-4a1 1 0 0 0-1-1H13.377a.5.5 0 0 1-.5-.5v-2.209c0-.873-1.04-1.327-1.68-.733L5.04 15.267a1 1 0 0 0 0 1.466l6.156 5.71c.64.593 1.68.139 1.68-.734V19.5a.5.5 0 0 1 .5-.5Z"></path>
    <path fill="#620F12" fill-rule="evenodd" d="M33.123 25.291c0-1.746 2.08-2.653 3.36-1.466l6.156 5.708a2 2 0 0 1 0 2.933l-6.156 5.71c-1.28 1.186-3.36.279-3.36-1.467v-1.71H10.75a3 3 0 0 1-3-3v-2a3 3 0 0 1 3-3h22.373v-1.708ZM41.28 31l-6.156-5.709V27.5a1.5 1.5 0 0 1-1.5 1.5H10.75a1 1 0 0 0-1 1v2a1 1 0 0 0 1 1h22.873a1.5 1.5 0 0 1 1.5 1.5v2.209l6.156-5.71Z" clip-rule="evenodd"></path>
    <path fill="#D92228" fill-rule="evenodd" d="M11.537 22.076a.5.5 0 0 0 .84-.367V19.5a1 1 0 0 1 1-1H36.25a1.5 1.5 0 0 0 1.5-1.5v-2a1.5 1.5 0 0 0-1.5-1.5H13.377a1 1 0 0 1-1-1v-2.209a.5.5 0 0 0-.84-.366L5.38 15.633a.5.5 0 0 0 0 .734l6.156 5.709Zm1.84-.367c0 1.31-1.56 1.99-2.52 1.1L4.7 17.099a1.5 1.5 0 0 1 0-2.199l6.156-5.709c.96-.89 2.52-.21 2.52 1.1v2.21H36.25a2.5 2.5 0 0 1 2.5 2.5v2a2.5 2.5 0 0 1-2.5 2.5H13.377v2.208Z" clip-rule="evenodd"></path>
  </symbol>
</svg>